HIERARCHY
ROOT SpineBase
{
  OFFSET 0.000000 0.000000 0.000000
  CHANNELS 6 Xposition Yposition Zposition Zrotation Xrotation Yrotation
  JOINT SpineMid
  {
    OFFSET -0.000000 33.572804 0.000000
    CHANNELS 3 Zrotation Xrotation Yrotation
    JOINT SpineShoulder
    {
      OFFSET -0.153263 25.154038 -1.197432
      CHANNELS 3 Zrotation Xrotation Yrotation
      JOINT Neck
      {
        OFFSET -0.171774 8.345568 -0.734540
        CHANNELS 3 Zrotation Xrotation Yrotation
        JOINT Head
        {
          OFFSET -5.280816 12.238915 4.732434
          CHANNELS 3 Zrotation Xrotation Yrotation
          End Site
          {
            OFFSET 0 0 0
          }
        }
      }
      JOINT ShoulderLeft
      {
        OFFSET -15.264982 -6.799924 -10.911668
        CHANNELS 3 Zrotation Xrotation Yrotation
        JOINT ElbowLeft
        {
          OFFSET -2.164954 -26.635320 -11.647929
          CHANNELS 3 Zrotation Xrotation Yrotation
          JOINT WristLeft
          {
            OFFSET -5.266526 -21.418191 1.500197
            CHANNELS 3 Zrotation Xrotation Yrotation
            JOINT HandLeft
            {
              OFFSET 3.350706 -5.326792 0.255034
              CHANNELS 3 Zrotation Xrotation Yrotation
              JOINT HandTipLeft
              {
                OFFSET -1.014503 -5.617119 2.267017
                CHANNELS 3 Zrotation Xrotation Yrotation
                End Site
                {
                  OFFSET 0 0 0
                }
              }
              JOINT ThumbLeft
              {
                OFFSET 2.331271 1.506470 -3.543906
                CHANNELS 3 Zrotation Xrotation Yrotation
                End Site
                {
                  OFFSET 0 0 0
                }
              }
            }
          }
        }
      }
      JOINT ShoulderRight
      {
        OFFSET 2.919106 -5.492868 -13.438250
        CHANNELS 3 Zrotation Xrotation Yrotation
        JOINT ElbowRight
        {
          OFFSET -8.666156 -25.598730 -8.622303
          CHANNELS 3 Zrotation Xrotation Yrotation
          JOINT WristRight
          {
            OFFSET -9.032351 -20.698152 -0.294031
            CHANNELS 3 Zrotation Xrotation Yrotation
            JOINT HandRight
            {
              OFFSET -3.326510 -6.601725 1.375218
              CHANNELS 3 Zrotation Xrotation Yrotation
              JOINT HandTipRight
              {
                OFFSET -2.005562 -6.231173 0.756907
                CHANNELS 3 Zrotation Xrotation Yrotation
                End Site
                {
                  OFFSET 0 0 0
                }
              }
              JOINT ThumbRight
              {
                OFFSET -1.343270 -0.644637 -3.795953
                CHANNELS 3 Zrotation Xrotation Yrotation
                End Site
                {
                  OFFSET 0 0 0
                }
              }
            }
          }
        }
      }
    }
  }
  JOINT HipLeft
  {
    OFFSET -6.696045 1.011613 -0.015917
    CHANNELS 3 Zrotation Xrotation Yrotation
    JOINT KneeLeft
    {
      OFFSET -7.330626 -36.967871 -11.222695
      CHANNELS 3 Zrotation Xrotation Yrotation
      JOINT AnkleLeft
      {
        OFFSET 12.413050 -31.010718 15.041655
        CHANNELS 3 Zrotation Xrotation Yrotation
        JOINT FootLeft
        {
          OFFSET -4.645501 -3.024373 -11.593592
          CHANNELS 3 Zrotation Xrotation Yrotation
          End Site
          {
            OFFSET 0 0 0
          }
        }
      }
    }
  }
  JOINT HipRight
  {
    OFFSET 6.699851 1.226166 -7.586823
    CHANNELS 3 Zrotation Xrotation Yrotation
    JOINT KneeRight
    {
      OFFSET -7.340756 -35.292982 9.500918
      CHANNELS 3 Zrotation Xrotation Yrotation
      JOINT AnkleRight
      {
        OFFSET -11.618366 -32.516428 -13.484068
        CHANNELS 3 Zrotation Xrotation Yrotation
        JOINT FootRight
        {
          OFFSET -6.445883 -6.291821 -1.767811
          CHANNELS 3 Zrotation Xrotation Yrotation
          End Site
          {
            OFFSET 0 0 0
          }
        }
      }
    }
  }
}
MOTION
Frames: 5
Frame Time: 0.033333
12.243948 74.842539 288.944809 0.000000 0.000000 29.473662 -0.000000 0.000000 -29.473662 -0.000000 0.000000 0.000000 -0.000000 0.000000 0.000000 0.000000 0.000000 0.000000 -0.000000 0.000000 0.000000 -0.000000 0.000000 0.000000 -0.000000 0.000000 0.000000 -0.000000 0.000000 0.000000 0.000000 0.000000 0.000000 0.000000 0.000000 0.000000 -0.000000 0.000000 0.000000 -0.000000 0.000000 0.000000 -0.000000 0.000000 0.000000 -0.000000 0.000000 0.000000 0.000000 0.000000 0.000000 0.000000 0.000000 0.000000 -0.000000 0.000000 -29.473662 -0.000000 0.000000 0.000000 -0.000000 0.000000 0.000000 0.000000 0.000000 0.000000 -0.000000 0.000000 -29.473662 -0.000000 0.000000 0.000000 -0.000000 0.000000 0.000000 0.000000 0.000000 0.000000
12.170033 75.108224 288.690644 0.257257 -0.050931 30.266162 -0.196522 0.173650 -30.265750 -0.000000 0.000000 0.000000 -0.000000 0.000000 0.000000 0.000000 0.000000 0.000000 -0.000000 0.000000 0.000000 -0.000000 0.000000 0.000000 -10.784721 4.585788 2.983597 14.994172 -1.745605 -0.687244 0.000000 0.000000 0.000000 0.000000 0.000000 0.000000 -0.826270 -1.124261 0.651380 1.720742 0.969836 -0.637409 -2.102255 2.784230 -1.602214 5.366092 -5.974562 3.537428 0.000000 0.000000 0.000000 0.000000 0.000000 0.000000 -1.355709 1.804176 -29.857909 3.846713 -1.407387 0.420582 0.023157 -3.636168 -2.627909 0.000000 0.000000 0.000000 0.738203 -2.983248 -29.128883 -4.202126 3.929939 -0.761732 3.988482 13.316700 -15.968696 0.000000 0.000000 0.000000
12.106258 75.234478 288.573426 0.461157 -0.112189 30.878363 -0.338220 0.332957 -30.876928 -0.000000 0.000000 0.000000 -0.000000 0.000000 0.000000 0.000000 0.000000 0.000000 0.596244 -0.703422 -0.200534 -1.076757 0.032543 0.341090 -20.679971 7.612142 5.395300 28.924072 -1.990263 0.407771 0.000000 0.000000 0.000000 0.000000 0.000000 0.000000 -1.632612 -1.972796 1.190883 3.270711 1.703708 -1.233795 -3.353054 4.335320 -2.440822 8.770755 -9.173218 5.890670 0.000000 0.000000 0.000000 0.000000 0.000000 0.000000 -2.183179 2.819478 -30.199037 6.109429 -1.778471 0.844353 0.044146 -6.639122 -4.294480 0.000000 0.000000 0.000000 1.143965 -4.628091 -29.067522 -6.506675 6.095814 -1.084489 9.535047 22.812920 -28.932821 0.000000 0.000000 0.000000
12.052621 75.221303 288.593156 0.610616 -0.183347 31.296747 0.387676 0.225879 -31.258438 -0.824689 -0.210467 -0.042054 0.748410 -0.101600 -0.331745 0.000000 0.000000 0.000000 0.986332 -0.984284 -0.344400 -0.992375 0.978191 0.361344 -29.315926 6.782096 5.534873 40.251990 0.785194 2.188686 0.000000 0.000000 0.000000 0.000000 0.000000 0.000000 -2.439675 -2.568467 1.637288 4.654373 2.237610 -1.781923 -3.857550 4.742732 -2.627939 10.034389 -10.078860 6.692949 0.000000 0.000000 0.000000 0.000000 0.000000 0.000000 -2.545138 3.080665 -30.497956 6.907802 -1.154162 1.200960 -0.013769 -8.551182 -4.933225 0.000000 0.000000 0.000000 1.227307 -4.925244 -29.314521 -7.036128 6.490427 -1.167642 14.197934 28.570802 -38.196496 0.000000 0.000000 0.000000
12.009124 75.068699 288.749835 0.705246 -0.263860 31.512030 0.459028 0.316935 -31.469516 -0.931116 -0.245517 -0.047814 0.969149 0.200104 -0.288853 0.000000 0.000000 0.000000 1.445207 -1.226799 -0.519809 -1.456603 1.213245 0.550706 -34.368208 4.364697 2.986480 48.090517 7.026033 3.415583 0.000000 0.000000 0.000000 0.000000 0.000000 0.000000 -3.266103 -2.925056 2.005138 5.878720 2.595711 -2.276464 -3.661506 4.083562 -2.214662 9.183430 -8.950837 5.879030 0.000000 0.000000 0.000000 0.000000 0.000000 0.000000 -2.469934 2.584630 -30.750786 6.271526 0.475666 1.491880 -0.179865 -9.149598 -4.527890 0.000000 0.000000 0.000000 1.004991 -3.853813 -29.874797 -5.800886 5.097473 -1.045468 17.039069 32.231229 -44.372370 0.000000 0.000000 0.000000
